<?xml version="1.0" encoding="UTF-8" standalone="no"?>
<!-- Created with Inkscape (http://www.inkscape.org/) -->

<svg
   id="AzureIcon"
   version="1.0"
   viewBox="0 0 1024 1024"
   height="1024"
   width="1024"
   sodipodi:docname="AzureIcon.svg"
   inkscape:version="1.2.1 (9c6d41e410, 2022-07-14)"
   inkscape:export-filename="AzureIcon.png"
   inkscape:export-xdpi="96"
   inkscape:export-ydpi="96"
   xmlns:inkscape="http://www.inkscape.org/namespaces/inkscape"
   xmlns:sodipodi="http://sodipodi.sourceforge.net/DTD/sodipodi-0.dtd"
   xmlns:xlink="http://www.w3.org/1999/xlink"
   xmlns="http://www.w3.org/2000/svg"
   xmlns:svg="http://www.w3.org/2000/svg">
  <defs
     id="defs147">
    <linearGradient
       inkscape:collect="always"
       id="linearGradient21805">
      <stop
         style="stop-color:#92fdec;stop-opacity:1;"
         offset="0"
         id="stop21801" />
      <stop
         style="stop-color:#1e8686;stop-opacity:1;"
         offset="1"
         id="stop21803" />
    </linearGradient>
    <linearGradient
       inkscape:collect="always"
       xlink:href="#linearGradient21805"
       id="linearGradient21807"
       x1="0"
       y1="0"
       x2="116"
       y2="116"
       gradientUnits="userSpaceOnUse"
       gradientTransform="matrix(8.8275862,0,0,8.8275862,0,0)" />
    <filter
       inkscape:collect="always"
       style="color-interpolation-filters:sRGB"
       id="filter17634"
       x="-0.14137648"
       y="-0.12682851"
       width="1.282753"
       height="1.253657">
      <feGaussianBlur
         inkscape:collect="always"
         stdDeviation="0.84257919"
         id="feGaussianBlur17632" />
    </filter>
    <filter
       inkscape:collect="always"
       style="color-interpolation-filters:sRGB"
       id="filter18365"
       x="-0.056658853"
       y="-0.056658853"
       width="1.1133177"
       height="1.1133177">
      <feGaussianBlur
         inkscape:collect="always"
         stdDeviation="0.84"
         id="feGaussianBlur18367" />
    </filter>
    <linearGradient
       inkscape:collect="always"
       xlink:href="#linearGradient21805-4"
       id="linearGradient21807-5"
       x1="0"
       y1="0"
       x2="116"
       y2="116"
       gradientUnits="userSpaceOnUse"
       gradientTransform="matrix(8.8275862,0,0,8.8275862,0,0)" />
    <linearGradient
       inkscape:collect="always"
       id="linearGradient21805-4">
      <stop
         style="stop-color:#2bfbdc;stop-opacity:1;"
         offset="0"
         id="stop21801-8" />
      <stop
         style="stop-color:#af8cfb;stop-opacity:1;"
         offset="1"
         id="stop21803-8" />
    </linearGradient>
  </defs>
  <g
     inkscape:groupmode="layer"
     id="Background"
     inkscape:label="Background"
     style="display:inline">
    <rect
       x="0"
       y="0"
       width="1024"
       height="1024"
       style="display:inline;mix-blend-mode:normal;fill:url(#linearGradient21807-5);fill-opacity:1;stroke:none;stroke-width:0;stroke-dasharray:none"
       id="rect18369-2"
       inkscape:export-filename=".\rect37222.png"
       inkscape:export-xdpi="1724.63"
       inkscape:export-ydpi="1724.63"
       inkscape:label="backgroundPurple" />
    <rect
       x="0"
       y="0"
       width="1024"
       height="1024"
       style="display:inline;mix-blend-mode:normal;fill:url(#linearGradient21807);fill-opacity:1;stroke:none;stroke-width:0;stroke-dasharray:none"
       id="rect1926"
       inkscape:export-filename=".\rect37222.png"
       inkscape:export-xdpi="1724.63"
       inkscape:export-ydpi="1724.63"
       inkscape:label="background" />
  </g>
  <g
     inkscape:groupmode="layer"
     id="QR_Code"
     inkscape:label="QR Code">
    <path
       d="M 49.4,50 H 38.6 C 38.268629,50 38,49.731371 38,49.4 V 48.6 C 38,48.268629 38.268629,48 38.6,48 h 2.8 C 41.731371,48 42,47.731371 42,47.4 V 46.6 C 42,46.268629 41.731371,46 41.4,46 H 38.6 C 38.268629,46 38,46.268629 38,46.6 v 0.8 C 38,47.731371 37.731371,48 37.4,48 H 36.6 C 36.268629,48 36,47.731371 36,47.4 V 44.6 C 36,44.268629 36.268629,44 36.6,44 h 6.8 c 0.331371,0 0.6,0.268629 0.6,0.6 v 2.8 c 0,0.331371 0.268629,0.6 0.6,0.6 h 2.8 C 47.731371,48 48,47.731371 48,47.4 V 46.6 C 48,46.268629 47.731371,46 47.4,46 H 46.6 C 46.268629,46 46,45.731371 46,45.4 V 44.6 C 46,44.268629 46.268629,44 46.6,44 h 2.8 c 0.331371,0 0.6,0.268629 0.6,0.6 v 4.8 c 0,0.331371 -0.268629,0.6 -0.6,0.6 z m -16,0 H 32.6 C 32.268629,50 32,49.731371 32,49.4 V 48.6 C 32,48.268629 32.268629,48 32.6,48 h 0.8 c 0.331371,0 0.6,0.268629 0.6,0.6 v 0.8 c 0,0.331371 -0.268629,0.6 -0.6,0.6 z m -6,0 H 26.6 C 26.268629,50 26,49.731371 26,49.4 V 48.6 C 26,48.268629 26.268629,48 26.6,48 h 0.8 c 0.331371,0 0.6,0.268629 0.6,0.6 v 0.8 c 0,0.331371 -0.268629,0.6 -0.6,0.6 z m 4,-2 H 28.6 C 28.268629,48 28,47.731371 28,47.4 V 46.6 C 28,46.268629 28.268629,46 28.6,46 h 0.8 C 29.731371,46 30,45.731371 30,45.4 V 42.6 C 30,42.268629 30.268629,42 30.6,42 h 0.8 c 0.331371,0 0.6,0.268629 0.6,0.6 v 0.8 c 0,0.331371 0.268629,0.6 0.6,0.6 h 0.8 c 0.331371,0 0.6,0.268629 0.6,0.6 v 0.8 C 34,45.731371 33.731371,46 33.4,46 H 32.6 C 32.268629,46 32,46.268629 32,46.6 v 0.8 c 0,0.331371 -0.268629,0.6 -0.6,0.6 z m -4,-2 H 24.6 C 24.268629,46 24,45.731371 24,45.4 V 44.6 C 24,44.268629 24.268629,44 24.6,44 h 0.8 C 25.731371,44 26,43.731371 26,43.4 V 42.6 C 26,42.268629 26.268629,42 26.6,42 h 0.8 c 0.331371,0 0.6,0.268629 0.6,0.6 v 2.8 c 0,0.331371 -0.268629,0.6 -0.6,0.6 z m 22,-4 H 46.6 C 46.268629,42 46,41.731371 46,41.4 V 36.6 C 46,36.268629 45.731371,36 45.4,36 H 42.6 C 42.268629,36 42,35.731371 42,35.4 V 34.6 C 42,34.268629 41.731371,34 41.4,34 H 38.6 C 38.268629,34 38,34.268629 38,34.6 v 2.8 C 38,37.731371 37.731371,38 37.4,38 H 36.6 C 36.268629,38 36,37.731371 36,37.4 V 34.6 C 36,34.268629 35.731371,34 35.4,34 H 34.6 C 34.268629,34 34,33.731371 34,33.4 V 30.6 C 34,30.268629 34.268629,30 34.6,30 h 0.8 C 35.731371,30 36,29.731371 36,29.4 V 28.6 C 36,28.268629 35.731371,28 35.4,28 H 34.6 C 34.268629,28 34,27.731371 34,27.4 V 24.6 C 34,24.268629 34.268629,24 34.6,24 h 0.8 c 0.331371,0 0.6,0.268629 0.6,0.6 v 0.8 c 0,0.331371 0.268629,0.6 0.6,0.6 h 0.8 C 37.731371,26 38,25.731371 38,25.4 V 24.6 C 38,24.268629 38.268629,24 38.6,24 h 8.8 c 0.331371,0 0.6,0.268629 0.6,0.6 v 0.8 C 48,25.731371 47.731371,26 47.4,26 H 46.6 C 46.268629,26 46,26.268629 46,26.6 v 0.8 c 0,0.331371 0.268629,0.6 0.6,0.6 h 2.8 c 0.331371,0 0.6,0.268629 0.6,0.6 v 2.8 C 50,31.731371 49.731371,32 49.4,32 H 48.6 C 48.268629,32 48,31.731371 48,31.4 V 30.6 C 48,30.268629 47.731371,30 47.4,30 H 46.6 C 46.268629,30 46,30.268629 46,30.6 v 0.8 C 46,31.731371 45.731371,32 45.4,32 H 44.6 C 44.268629,32 44,31.731371 44,31.4 V 26.6 C 44,26.268629 43.731371,26 43.4,26 H 40.6 C 40.268629,26 40,26.268629 40,26.6 v 0.8 c 0,0.331371 0.268629,0.6 0.6,0.6 h 0.8 c 0.331371,0 0.6,0.268629 0.6,0.6 v 0.8 C 42,29.731371 41.731371,30 41.4,30 H 40.6 C 40.268629,30 40,30.268629 40,30.6 v 0.8 c 0,0.331371 0.268629,0.6 0.6,0.6 h 2.8 c 0.331371,0 0.6,0.268629 0.6,0.6 v 0.8 c 0,0.331371 0.268629,0.6 0.6,0.6 h 2.8 c 0.331371,0 0.6,0.268629 0.6,0.6 v 0.8 c 0,0.331371 0.268629,0.6 0.6,0.6 h 0.8 c 0.331371,0 0.6,0.268629 0.6,0.6 v 4.8 c 0,0.331371 -0.268629,0.6 -0.6,0.6 z m -12,0 H 34.6 C 34.268629,42 34,41.731371 34,41.4 V 40.6 C 34,40.268629 33.731371,40 33.4,40 H 32.6 C 32.268629,40 32,39.731371 32,39.4 V 38.6 C 32,38.268629 32.268629,38 32.6,38 h 2.8 c 0.331371,0 0.6,0.268629 0.6,0.6 v 0.8 c 0,0.331371 0.268629,0.6 0.6,0.6 h 0.8 c 0.331371,0 0.6,0.268629 0.6,0.6 v 0.8 c 0,0.331371 -0.268629,0.6 -0.6,0.6 z m -8,0 H 28.6 C 28.268629,42 28,41.731371 28,41.4 V 36.6 C 28,36.268629 28.268629,36 28.6,36 h 2.8 c 0.331371,0 0.6,0.268629 0.6,0.6 v 0.8 C 32,37.731371 31.731371,38 31.4,38 H 30.6 C 30.268629,38 30,38.268629 30,38.6 v 2.8 c 0,0.331371 -0.268629,0.6 -0.6,0.6 z m 12,-2 H 40.6 C 40.268629,40 40,39.731371 40,39.4 V 38.6 C 40,38.268629 40.268629,38 40.6,38 h 0.8 c 0.331371,0 0.6,0.268629 0.6,0.6 v 0.8 c 0,0.331371 -0.268629,0.6 -0.6,0.6 z m -16,0 H 24.6 C 24.268629,40 24,39.731371 24,39.4 V 34.6 C 24,34.268629 23.731371,34 23.4,34 H 20.6 C 20.268629,34 20,33.731371 20,33.4 V 32.6 C 20,32.268629 20.268629,32 20.6,32 h 0.8 C 21.731371,32 22,31.731371 22,31.4 V 30.6 C 22,30.268629 22.268629,30 22.6,30 h 4.8 c 0.331371,0 0.6,0.268629 0.6,0.6 v 0.8 C 28,31.731371 27.731371,32 27.4,32 H 26.6 C 26.268629,32 26,32.268629 26,32.6 v 6.8 c 0,0.331371 -0.268629,0.6 -0.6,0.6 z m 8,-4 H 32.6 C 32.268629,36 32,35.731371 32,35.4 V 34.6 C 32,34.268629 32.268629,34 32.6,34 h 0.8 c 0.331371,0 0.6,0.268629 0.6,0.6 v 0.8 c 0,0.331371 -0.268629,0.6 -0.6,0.6 z m -2,-2 H 30.6 C 30.268629,34 30,33.731371 30,33.4 V 30.6 C 30,30.268629 30.268629,30 30.6,30 h 0.8 c 0.331371,0 0.6,0.268629 0.6,0.6 v 2.8 c 0,0.331371 -0.268629,0.6 -0.6,0.6 z m -14,0 H 16.6 C 16.268629,34 16,33.731371 16,33.4 V 32.6 C 16,32.268629 16.268629,32 16.6,32 h 0.8 c 0.331371,0 0.6,0.268629 0.6,0.6 v 0.8 c 0,0.331371 -0.268629,0.6 -0.6,0.6 z m -6,0 H 10.6 C 10.268629,34 10,33.731371 10,33.4 V 30.6 C 10,30.268629 10.268629,30 10.6,30 h 2.8 c 0.331371,0 0.6,0.268629 0.6,0.6 v 0.8 C 14,31.731371 13.731371,32 13.4,32 H 12.6 C 12.268629,32 12,32.268629 12,32.6 v 0.8 c 0,0.331371 -0.268629,0.6 -0.6,0.6 z m 8,-2 H 18.6 C 18.268629,32 18,31.731371 18,31.4 V 30.6 C 18,30.268629 17.731371,30 17.4,30 H 14.6 C 14.268629,30 14,29.731371 14,29.4 V 26.6 C 14,26.268629 14.268629,26 14.6,26 h 0.8 c 0.331371,0 0.6,0.268629 0.6,0.6 v 0.8 c 0,0.331371 0.268629,0.6 0.6,0.6 h 0.8 C 17.731371,28 18,27.731371 18,27.4 V 24.6 C 18,24.268629 18.268629,24 18.6,24 h 6.8 c 0.331371,0 0.6,0.268629 0.6,0.6 v 2.8 C 26,27.731371 25.731371,28 25.4,28 H 22.6 C 22.268629,28 22,27.731371 22,27.4 V 26.6 C 22,26.268629 21.731371,26 21.4,26 H 20.6 C 20.268629,26 20,26.268629 20,26.6 v 0.8 c 0,0.331371 0.268629,0.6 0.6,0.6 h 0.8 c 0.331371,0 0.6,0.268629 0.6,0.6 v 0.8 C 22,29.731371 21.731371,30 21.4,30 H 20.6 C 20.268629,30 20,30.268629 20,30.6 v 0.8 C 20,31.731371 19.731371,32 19.4,32 Z M 9.4,28 H 8.6 C 8.268629,28 8,27.731371 8,27.4 V 26.6 C 8,26.268629 8.268629,26 8.6,26 h 0.8 c 0.331371,0 0.6,0.268629 0.6,0.6 v 0.8 C 10,27.731371 9.731371,28 9.4,28 Z m 22,-2 H 30.6 C 30.268629,26 30,25.731371 30,25.4 V 22.6 C 30,22.268629 30.268629,22 30.6,22 h 0.8 C 31.731371,22 32,21.731371 32,21.4 V 18.6 C 32,18.268629 32.268629,18 32.6,18 h 0.8 c 0.331371,0 0.6,0.268629 0.6,0.6 v 4.8 C 34,23.731371 33.731371,24 33.4,24 H 32.6 C 32.268629,24 32,24.268629 32,24.6 v 0.8 c 0,0.331371 -0.268629,0.6 -0.6,0.6 z m -18,0 H 12.6 C 12.268629,26 12,25.731371 12,25.4 V 24.6 C 12,24.268629 12.268629,24 12.6,24 h 0.8 c 0.331371,0 0.6,0.268629 0.6,0.6 v 0.8 c 0,0.331371 -0.268629,0.6 -0.6,0.6 z m 14,-2 H 26.6 C 26.268629,24 26,23.731371 26,23.4 V 22.6 C 26,22.268629 26.268629,22 26.6,22 h 0.8 c 0.331371,0 0.6,0.268629 0.6,0.6 v 0.8 c 0,0.331371 -0.268629,0.6 -0.6,0.6 z m 22,-2 H 36.6 C 36.268629,22 36,21.731371 36,21.4 V 8.6 C 36,8.268629 36.268629,8 36.6,8 H 49.4 C 49.731371,8 50,8.268629 50,8.6 v 12.8 c 0,0.331371 -0.268629,0.6 -0.6,0.6 z m -20,0 H 28.6 C 28.268629,22 28,21.731371 28,21.4 V 20.6 C 28,20.268629 28.268629,20 28.6,20 h 0.8 c 0.331371,0 0.6,0.268629 0.6,0.6 v 0.8 c 0,0.331371 -0.268629,0.6 -0.6,0.6 z m -4,0 H 24.6 C 24.268629,22 24,21.731371 24,21.4 V 10.6 C 24,10.268629 24.268629,10 24.6,10 h 2.8 c 0.331371,0 0.6,0.268629 0.6,0.6 v 2.8 c 0,0.331371 0.268629,0.6 0.6,0.6 h 0.8 c 0.331371,0 0.6,0.268629 0.6,0.6 v 0.8 C 30,15.731371 29.731371,16 29.4,16 H 28.6 C 28.268629,16 28,16.268629 28,16.6 v 0.8 C 28,17.731371 27.731371,18 27.4,18 H 26.6 C 26.268629,18 26,18.268629 26,18.6 v 2.8 c 0,0.331371 -0.268629,0.6 -0.6,0.6 z m -4,0 H 8.6 C 8.268629,22 8,21.731371 8,21.4 V 8.6 C 8,8.268629 8.268629,8 8.6,8 H 21.4 C 21.731371,8 22,8.268629 22,8.6 V 21.4 C 22,21.731371 21.731371,22 21.4,22 Z M 48,19.4 V 10.6 C 48,10.268629 47.731371,10 47.4,10 H 38.6 C 38.268629,10 38,10.268629 38,10.6 v 8.8 c 0,0.331371 0.268629,0.6 0.6,0.6 h 8.8 c 0.331371,0 0.6,-0.268629 0.6,-0.6 z m -28,0 V 10.6 C 20,10.268629 19.731371,10 19.4,10 H 10.6 C 10.268629,10 10,10.268629 10,10.6 v 8.8 c 0,0.331371 0.268629,0.6 0.6,0.6 h 8.8 C 19.731371,20 20,19.731371 20,19.4 Z M 45.4,18 H 40.6 C 40.268629,18 40,17.731371 40,17.4 V 12.6 C 40,12.268629 40.268629,12 40.6,12 h 4.8 c 0.331371,0 0.6,0.268629 0.6,0.6 v 4.8 c 0,0.331371 -0.268629,0.6 -0.6,0.6 z m -28,0 H 12.6 C 12.268629,18 12,17.731371 12,17.4 V 12.6 C 12,12.268629 12.268629,12 12.6,12 h 4.8 c 0.331371,0 0.6,0.268629 0.6,0.6 v 4.8 c 0,0.331371 -0.268629,0.6 -0.6,0.6 z m 16,-4 H 30.6 C 30.268629,14 30,13.731371 30,13.4 V 10.6 C 30,10.268629 29.731371,10 29.4,10 H 28.6 C 28.268629,10 28,9.731371 28,9.4 V 8.6 C 28,8.268629 28.268629,8 28.6,8 h 4.8 C 33.731371,8 34,8.268629 34,8.6 v 4.8 c 0,0.331371 -0.268629,0.6 -0.6,0.6 z"
       id="path17408"
       style="display:inline;fill:none;stroke:#ffffff;stroke-width:0.72734374;stroke-dasharray:none;stroke-opacity:1;filter:url(#filter18365)"
       transform="matrix(19.248121,0,0,19.248121,-46.195503,-46.195503)"
       sodipodi:nodetypes="ssssssssssssssssssssssssssssssssssssssssssssssssssssssssssssssssssssssssssssssssssssssssssssssssssssssssssssssssssssssssssssssssssssssssssssssssssssssssssssssssssssssssssssssssssssssssssssssssssssssssssssssssssssssssssssssssssssssssssssssssssssssssssssssssssssssssssssssssssssssssssssssssssssssssssssssssssssssssssssssssssssssssssssssssssssssssssssssssssssssssssssssssssssssssssssssssssssssssssssssssssssssssssssssssssssssssssssssssssssssssssssssss"
       inkscape:label="glow" />
    <path
       d="M 49.4,50 H 38.6 C 38.268629,50 38,49.731371 38,49.4 V 48.6 C 38,48.268629 38.268629,48 38.6,48 h 2.8 C 41.731371,48 42,47.731371 42,47.4 V 46.6 C 42,46.268629 41.731371,46 41.4,46 H 38.6 C 38.268629,46 38,46.268629 38,46.6 v 0.8 C 38,47.731371 37.731371,48 37.4,48 H 36.6 C 36.268629,48 36,47.731371 36,47.4 V 44.6 C 36,44.268629 36.268629,44 36.6,44 h 6.8 c 0.331371,0 0.6,0.268629 0.6,0.6 v 2.8 c 0,0.331371 0.268629,0.6 0.6,0.6 h 2.8 C 47.731371,48 48,47.731371 48,47.4 V 46.6 C 48,46.268629 47.731371,46 47.4,46 H 46.6 C 46.268629,46 46,45.731371 46,45.4 V 44.6 C 46,44.268629 46.268629,44 46.6,44 h 2.8 c 0.331371,0 0.6,0.268629 0.6,0.6 v 4.8 c 0,0.331371 -0.268629,0.6 -0.6,0.6 z m -16,0 H 32.6 C 32.268629,50 32,49.731371 32,49.4 V 48.6 C 32,48.268629 32.268629,48 32.6,48 h 0.8 c 0.331371,0 0.6,0.268629 0.6,0.6 v 0.8 c 0,0.331371 -0.268629,0.6 -0.6,0.6 z m -6,0 H 26.6 C 26.268629,50 26,49.731371 26,49.4 V 48.6 C 26,48.268629 26.268629,48 26.6,48 h 0.8 c 0.331371,0 0.6,0.268629 0.6,0.6 v 0.8 c 0,0.331371 -0.268629,0.6 -0.6,0.6 z m 4,-2 H 28.6 C 28.268629,48 28,47.731371 28,47.4 V 46.6 C 28,46.268629 28.268629,46 28.6,46 h 0.8 C 29.731371,46 30,45.731371 30,45.4 V 42.6 C 30,42.268629 30.268629,42 30.6,42 h 0.8 c 0.331371,0 0.6,0.268629 0.6,0.6 v 0.8 c 0,0.331371 0.268629,0.6 0.6,0.6 h 0.8 c 0.331371,0 0.6,0.268629 0.6,0.6 v 0.8 C 34,45.731371 33.731371,46 33.4,46 H 32.6 C 32.268629,46 32,46.268629 32,46.6 v 0.8 c 0,0.331371 -0.268629,0.6 -0.6,0.6 z m -4,-2 H 24.6 C 24.268629,46 24,45.731371 24,45.4 V 44.6 C 24,44.268629 24.268629,44 24.6,44 h 0.8 C 25.731371,44 26,43.731371 26,43.4 V 42.6 C 26,42.268629 26.268629,42 26.6,42 h 0.8 c 0.331371,0 0.6,0.268629 0.6,0.6 v 2.8 c 0,0.331371 -0.268629,0.6 -0.6,0.6 z m 22,-4 H 46.6 C 46.268629,42 46,41.731371 46,41.4 V 36.6 C 46,36.268629 45.731371,36 45.4,36 H 42.6 C 42.268629,36 42,35.731371 42,35.4 V 34.6 C 42,34.268629 41.731371,34 41.4,34 H 38.6 C 38.268629,34 38,34.268629 38,34.6 v 2.8 C 38,37.731371 37.731371,38 37.4,38 H 36.6 C 36.268629,38 36,37.731371 36,37.4 V 34.6 C 36,34.268629 35.731371,34 35.4,34 H 34.6 C 34.268629,34 34,33.731371 34,33.4 V 30.6 C 34,30.268629 34.268629,30 34.6,30 h 0.8 C 35.731371,30 36,29.731371 36,29.4 V 28.6 C 36,28.268629 35.731371,28 35.4,28 H 34.6 C 34.268629,28 34,27.731371 34,27.4 V 24.6 C 34,24.268629 34.268629,24 34.6,24 h 0.8 c 0.331371,0 0.6,0.268629 0.6,0.6 v 0.8 c 0,0.331371 0.268629,0.6 0.6,0.6 h 0.8 C 37.731371,26 38,25.731371 38,25.4 V 24.6 C 38,24.268629 38.268629,24 38.6,24 h 8.8 c 0.331371,0 0.6,0.268629 0.6,0.6 v 0.8 C 48,25.731371 47.731371,26 47.4,26 H 46.6 C 46.268629,26 46,26.268629 46,26.6 v 0.8 c 0,0.331371 0.268629,0.6 0.6,0.6 h 2.8 c 0.331371,0 0.6,0.268629 0.6,0.6 v 2.8 C 50,31.731371 49.731371,32 49.4,32 H 48.6 C 48.268629,32 48,31.731371 48,31.4 V 30.6 C 48,30.268629 47.731371,30 47.4,30 H 46.6 C 46.268629,30 46,30.268629 46,30.6 v 0.8 C 46,31.731371 45.731371,32 45.4,32 H 44.6 C 44.268629,32 44,31.731371 44,31.4 V 26.6 C 44,26.268629 43.731371,26 43.4,26 H 40.6 C 40.268629,26 40,26.268629 40,26.6 v 0.8 c 0,0.331371 0.268629,0.6 0.6,0.6 h 0.8 c 0.331371,0 0.6,0.268629 0.6,0.6 v 0.8 C 42,29.731371 41.731371,30 41.4,30 H 40.6 C 40.268629,30 40,30.268629 40,30.6 v 0.8 c 0,0.331371 0.268629,0.6 0.6,0.6 h 2.8 c 0.331371,0 0.6,0.268629 0.6,0.6 v 0.8 c 0,0.331371 0.268629,0.6 0.6,0.6 h 2.8 c 0.331371,0 0.6,0.268629 0.6,0.6 v 0.8 c 0,0.331371 0.268629,0.6 0.6,0.6 h 0.8 c 0.331371,0 0.6,0.268629 0.6,0.6 v 4.8 c 0,0.331371 -0.268629,0.6 -0.6,0.6 z m -12,0 H 34.6 C 34.268629,42 34,41.731371 34,41.4 V 40.6 C 34,40.268629 33.731371,40 33.4,40 H 32.6 C 32.268629,40 32,39.731371 32,39.4 V 38.6 C 32,38.268629 32.268629,38 32.6,38 h 2.8 c 0.331371,0 0.6,0.268629 0.6,0.6 v 0.8 c 0,0.331371 0.268629,0.6 0.6,0.6 h 0.8 c 0.331371,0 0.6,0.268629 0.6,0.6 v 0.8 c 0,0.331371 -0.268629,0.6 -0.6,0.6 z m -8,0 H 28.6 C 28.268629,42 28,41.731371 28,41.4 V 36.6 C 28,36.268629 28.268629,36 28.6,36 h 2.8 c 0.331371,0 0.6,0.268629 0.6,0.6 v 0.8 C 32,37.731371 31.731371,38 31.4,38 H 30.6 C 30.268629,38 30,38.268629 30,38.6 v 2.8 c 0,0.331371 -0.268629,0.6 -0.6,0.6 z m 12,-2 H 40.6 C 40.268629,40 40,39.731371 40,39.4 V 38.6 C 40,38.268629 40.268629,38 40.6,38 h 0.8 c 0.331371,0 0.6,0.268629 0.6,0.6 v 0.8 c 0,0.331371 -0.268629,0.6 -0.6,0.6 z m -16,0 H 24.6 C 24.268629,40 24,39.731371 24,39.4 V 34.6 C 24,34.268629 23.731371,34 23.4,34 H 20.6 C 20.268629,34 20,33.731371 20,33.4 V 32.6 C 20,32.268629 20.268629,32 20.6,32 h 0.8 C 21.731371,32 22,31.731371 22,31.4 V 30.6 C 22,30.268629 22.268629,30 22.6,30 h 4.8 c 0.331371,0 0.6,0.268629 0.6,0.6 v 0.8 C 28,31.731371 27.731371,32 27.4,32 H 26.6 C 26.268629,32 26,32.268629 26,32.6 v 6.8 c 0,0.331371 -0.268629,0.6 -0.6,0.6 z m 8,-4 H 32.6 C 32.268629,36 32,35.731371 32,35.4 V 34.6 C 32,34.268629 32.268629,34 32.6,34 h 0.8 c 0.331371,0 0.6,0.268629 0.6,0.6 v 0.8 c 0,0.331371 -0.268629,0.6 -0.6,0.6 z m -2,-2 H 30.6 C 30.268629,34 30,33.731371 30,33.4 V 30.6 C 30,30.268629 30.268629,30 30.6,30 h 0.8 c 0.331371,0 0.6,0.268629 0.6,0.6 v 2.8 c 0,0.331371 -0.268629,0.6 -0.6,0.6 z m -14,0 H 16.6 C 16.268629,34 16,33.731371 16,33.4 V 32.6 C 16,32.268629 16.268629,32 16.6,32 h 0.8 c 0.331371,0 0.6,0.268629 0.6,0.6 v 0.8 c 0,0.331371 -0.268629,0.6 -0.6,0.6 z m -6,0 H 10.6 C 10.268629,34 10,33.731371 10,33.4 V 30.6 C 10,30.268629 10.268629,30 10.6,30 h 2.8 c 0.331371,0 0.6,0.268629 0.6,0.6 v 0.8 C 14,31.731371 13.731371,32 13.4,32 H 12.6 C 12.268629,32 12,32.268629 12,32.6 v 0.8 c 0,0.331371 -0.268629,0.6 -0.6,0.6 z m 8,-2 H 18.6 C 18.268629,32 18,31.731371 18,31.4 V 30.6 C 18,30.268629 17.731371,30 17.4,30 H 14.6 C 14.268629,30 14,29.731371 14,29.4 V 26.6 C 14,26.268629 14.268629,26 14.6,26 h 0.8 c 0.331371,0 0.6,0.268629 0.6,0.6 v 0.8 c 0,0.331371 0.268629,0.6 0.6,0.6 h 0.8 C 17.731371,28 18,27.731371 18,27.4 V 24.6 C 18,24.268629 18.268629,24 18.6,24 h 6.8 c 0.331371,0 0.6,0.268629 0.6,0.6 v 2.8 C 26,27.731371 25.731371,28 25.4,28 H 22.6 C 22.268629,28 22,27.731371 22,27.4 V 26.6 C 22,26.268629 21.731371,26 21.4,26 H 20.6 C 20.268629,26 20,26.268629 20,26.6 v 0.8 c 0,0.331371 0.268629,0.6 0.6,0.6 h 0.8 c 0.331371,0 0.6,0.268629 0.6,0.6 v 0.8 C 22,29.731371 21.731371,30 21.4,30 H 20.6 C 20.268629,30 20,30.268629 20,30.6 v 0.8 C 20,31.731371 19.731371,32 19.4,32 Z M 9.4,28 H 8.6 C 8.268629,28 8,27.731371 8,27.4 V 26.6 C 8,26.268629 8.268629,26 8.6,26 h 0.8 c 0.331371,0 0.6,0.268629 0.6,0.6 v 0.8 C 10,27.731371 9.731371,28 9.4,28 Z m 22,-2 H 30.6 C 30.268629,26 30,25.731371 30,25.4 V 22.6 C 30,22.268629 30.268629,22 30.6,22 h 0.8 C 31.731371,22 32,21.731371 32,21.4 V 18.6 C 32,18.268629 32.268629,18 32.6,18 h 0.8 c 0.331371,0 0.6,0.268629 0.6,0.6 v 4.8 C 34,23.731371 33.731371,24 33.4,24 H 32.6 C 32.268629,24 32,24.268629 32,24.6 v 0.8 c 0,0.331371 -0.268629,0.6 -0.6,0.6 z m -18,0 H 12.6 C 12.268629,26 12,25.731371 12,25.4 V 24.6 C 12,24.268629 12.268629,24 12.6,24 h 0.8 c 0.331371,0 0.6,0.268629 0.6,0.6 v 0.8 c 0,0.331371 -0.268629,0.6 -0.6,0.6 z m 14,-2 H 26.6 C 26.268629,24 26,23.731371 26,23.4 V 22.6 C 26,22.268629 26.268629,22 26.6,22 h 0.8 c 0.331371,0 0.6,0.268629 0.6,0.6 v 0.8 c 0,0.331371 -0.268629,0.6 -0.6,0.6 z m 22,-2 H 36.6 C 36.268629,22 36,21.731371 36,21.4 V 8.6 C 36,8.268629 36.268629,8 36.6,8 H 49.4 C 49.731371,8 50,8.268629 50,8.6 v 12.8 c 0,0.331371 -0.268629,0.6 -0.6,0.6 z m -20,0 H 28.6 C 28.268629,22 28,21.731371 28,21.4 V 20.6 C 28,20.268629 28.268629,20 28.6,20 h 0.8 c 0.331371,0 0.6,0.268629 0.6,0.6 v 0.8 c 0,0.331371 -0.268629,0.6 -0.6,0.6 z m -4,0 H 24.6 C 24.268629,22 24,21.731371 24,21.4 V 10.6 C 24,10.268629 24.268629,10 24.6,10 h 2.8 c 0.331371,0 0.6,0.268629 0.6,0.6 v 2.8 c 0,0.331371 0.268629,0.6 0.6,0.6 h 0.8 c 0.331371,0 0.6,0.268629 0.6,0.6 v 0.8 C 30,15.731371 29.731371,16 29.4,16 H 28.6 C 28.268629,16 28,16.268629 28,16.6 v 0.8 C 28,17.731371 27.731371,18 27.4,18 H 26.6 C 26.268629,18 26,18.268629 26,18.6 v 2.8 c 0,0.331371 -0.268629,0.6 -0.6,0.6 z m -4,0 H 8.6 C 8.268629,22 8,21.731371 8,21.4 V 8.6 C 8,8.268629 8.268629,8 8.6,8 H 21.4 C 21.731371,8 22,8.268629 22,8.6 V 21.4 C 22,21.731371 21.731371,22 21.4,22 Z M 48,19.4 V 10.6 C 48,10.268629 47.731371,10 47.4,10 H 38.6 C 38.268629,10 38,10.268629 38,10.6 v 8.8 c 0,0.331371 0.268629,0.6 0.6,0.6 h 8.8 c 0.331371,0 0.6,-0.268629 0.6,-0.6 z m -28,0 V 10.6 C 20,10.268629 19.731371,10 19.4,10 H 10.6 C 10.268629,10 10,10.268629 10,10.6 v 8.8 c 0,0.331371 0.268629,0.6 0.6,0.6 h 8.8 C 19.731371,20 20,19.731371 20,19.4 Z M 45.4,18 H 40.6 C 40.268629,18 40,17.731371 40,17.4 V 12.6 C 40,12.268629 40.268629,12 40.6,12 h 4.8 c 0.331371,0 0.6,0.268629 0.6,0.6 v 4.8 c 0,0.331371 -0.268629,0.6 -0.6,0.6 z m -28,0 H 12.6 C 12.268629,18 12,17.731371 12,17.4 V 12.6 C 12,12.268629 12.268629,12 12.6,12 h 4.8 c 0.331371,0 0.6,0.268629 0.6,0.6 v 4.8 c 0,0.331371 -0.268629,0.6 -0.6,0.6 z m 16,-4 H 30.6 C 30.268629,14 30,13.731371 30,13.4 V 10.6 C 30,10.268629 29.731371,10 29.4,10 H 28.6 C 28.268629,10 28,9.731371 28,9.4 V 8.6 C 28,8.268629 28.268629,8 28.6,8 h 4.8 C 33.731371,8 34,8.268629 34,8.6 v 4.8 c 0,0.331371 -0.268629,0.6 -0.6,0.6 z"
       id="path18363"
       style="display:inline;fill:#000000;stroke:none"
       transform="matrix(19.248121,0,0,19.248121,-46.195503,-46.195503)"
       sodipodi:nodetypes="ssssssssssssssssssssssssssssssssssssssssssssssssssssssssssssssssssssssssssssssssssssssssssssssssssssssssssssssssssssssssssssssssssssssssssssssssssssssssssssssssssssssssssssssssssssssssssssssssssssssssssssssssssssssssssssssssssssssssssssssssssssssssssssssssssssssssssssssssssssssssssssssssssssssssssssssssssssssssssssssssssssssssssssssssssssssssssssssssssssssssssssssssssssssssssssssssssssssssssssssssssssssssssssssssssssssssssssssssssssssssssssssss"
       inkscape:label="infill" />
  </g>
  <g
     inkscape:groupmode="layer"
     id="A"
     inkscape:label="A"
     style="display:inline"
     transform="matrix(0.9722547,0,0,0.9722547,1.586158,0.64311085)">
    <text
       xml:space="preserve"
       style="font-size:26.6667px;display:inline;opacity:1;mix-blend-mode:normal;fill:none;fill-opacity:1;stroke:#ffffff;stroke-width:0.96271;stroke-linejoin:miter;stroke-dasharray:none;stroke-opacity:1;filter:url(#filter17634)"
       x="1.9257812"
       y="53.512093"
       id="text17609"
       transform="matrix(14.957275,0,0,14.957275,76.13571,130.3071)"
       inkscape:label="glow"><tspan
         sodipodi:role="line"
         id="tspan17607"
         x="1.9257812"
         y="53.512093"
         style="font-style:normal;font-variant:normal;font-weight:normal;font-stretch:normal;font-size:26.6667px;font-family:'Arial Rounded MT Bold';-inkscape-font-specification:'Arial Rounded MT Bold, ';fill:none;fill-opacity:1;stroke:#ffffff;stroke-width:0.96271;stroke-linejoin:miter;stroke-dasharray:none;stroke-opacity:1">A</tspan></text>
    <text
       xml:space="preserve"
       style="font-size:399.887px;display:inline;opacity:1;fill:#000000;fill-opacity:1;stroke:none;stroke-width:7.36286;stroke-dasharray:none;stroke-opacity:1"
       x="104.74708"
       y="930.51367"
       id="text17613"
       inkscape:label="infill"
       transform="scale(0.9992948,1.0007057)"><tspan
         sodipodi:role="line"
         id="tspan17611"
         x="104.74708"
         y="930.51367"
         style="font-style:normal;font-variant:normal;font-weight:normal;font-stretch:normal;font-size:399.887px;font-family:'Arial Rounded MT Bold';-inkscape-font-specification:'Arial Rounded MT Bold, ';fill:#000000;fill-opacity:1;stroke:none;stroke-width:7.36286;stroke-opacity:1">A</tspan></text>
  </g>
</svg>
